<svg width="102" height="102" viewBox="0 0 102 102" fill="none" xmlns="http://www.w3.org/2000/svg">
<path fill-rule="evenodd" clip-rule="evenodd" d="M80.345 91.4871C72.1037 97.4708 61.9642 101 51.0005 101C23.3865 101 1 78.6135 1 51.0005C1 23.3855 23.3865 1 51.0005 1C78.6145 1 101 23.3855 101 51.0005C101 62.7145 96.9719 73.4873 90.2243 82.0102" fill="#FCFCFC"/>
<path d="M80.345 91.4871C72.1037 97.4708 61.9642 101 51.0005 101C23.3865 101 1 78.6135 1 51.0005C1 23.3855 23.3865 1 51.0005 1C78.6145 1 101 23.3855 101 51.0005C101 62.7145 96.9719 73.4873 90.2243 82.0102" stroke="#F45F5F"/>
</svg>
